<svg width="24" height="24" viewBox="0 0 24 24" fill="none" xmlns="http://www.w3.org/2000/svg">
<path d="M12.0002 1.20007C15.8002 1.20007 19.3002 3.20008 21.3002 6.40007H12.0002H11.9002C9.40019 6.50008 7.4002 8.10007 6.70019 10.4001L3.70019 5.10007C5.70019 2.60008 8.70019 1.20007 12.0002 1.20007ZM12.0002 15.8001C9.90019 15.8001 8.3002 14.1001 8.3002 12.1C8.3002 10.0001 10.0002 8.30008 12.0002 8.30008C14.1002 8.30008 15.7002 10.0001 15.7002 12.0001C15.8002 14.1001 14.1002 15.8001 12.0002 15.8001ZM10.2002 22.7001C5.1002 21.8001 1.2002 17.3001 1.2002 12.0001C1.2002 10.1001 1.7002 8.30008 2.6002 6.70007L6.90019 14.1001C7.80019 16.2001 9.8002 17.5 12.0002 17.5C12.4002 17.5 12.9002 17.4001 13.3002 17.3001L10.2002 22.7001ZM12.1002 22.8001L16.4002 15.4C17.2002 14.4001 17.6002 13.2001 17.6002 12.0001C17.6002 10.5001 17.0002 9.10007 16.0002 8.10007H22.2002C22.7002 9.30007 22.9002 10.7001 22.9002 12.0001C22.8002 17.9001 18.0002 22.8001 12.1002 22.8001Z" fill="#111111"/>
</svg>
