<svg width="80" height="80" viewBox="0 0 80 80" fill="none" xmlns="http://www.w3.org/2000/svg">
<g clip-path="url(#clip0_3829_85)">
<path fill-rule="evenodd" clip-rule="evenodd" d="M52.4936 13.167C52.4294 13.2151 52.3242 13.3364 52.3242 13.3364L52.4936 13.167Z" fill="#FE0100"/>
<path d="M15.9284 66.1694C16.1171 66.1694 16.2912 66.1071 16.4313 66.0019L52.9962 29.437C53.1014 29.2969 53.1637 29.1227 53.1637 28.9341V14.6605V13.3355C53.1637 12.8974 52.7823 12.9507 52.4936 13.167L52.3242 13.3364L0.3307 65.3299C0.0244677 65.5592 -0.226911 66.1694 0.329795 66.1694H15.9284Z" fill="#FE0100"/>
<path d="M79.1627 66.1693C79.6258 66.1693 80.0013 65.7938 80.0013 65.3307V13.0168C79.9471 13.0058 79.8909 13 79.8334 13C79.5588 13 79.315 13.132 79.162 13.336L27.168 65.33C26.964 65.483 26.832 65.7268 26.832 66.0014C26.832 66.1676 27.0234 66.1693 27.1674 66.1693H42.766C42.9546 66.1693 43.1288 66.107 43.2689 66.0018L43.4371 65.8336L66.2475 43.0232C66.2475 43.0232 66.4495 42.8157 66.5832 42.7573V43.5262V44.295V65.3307C66.5832 65.7938 66.9586 66.1693 67.4218 66.1693H79.1627Z" fill="#FE0100"/>
</g>
<defs>
<clipPath id="clip0_3829_85">
<rect width="80" height="80" fill="white"/>
</clipPath>
</defs>
</svg>
