<svg width="80" height="80" viewBox="0 0 80 80" fill="none" xmlns="http://www.w3.org/2000/svg">
<path fill-rule="evenodd" clip-rule="evenodd" d="M52.4936 13.1669C52.4294 13.215 52.3242 13.3363 52.3242 13.3363L52.4936 13.1669Z" fill="#141414"/>
<path d="M15.9284 66.1693C16.1171 66.1693 16.2912 66.107 16.4313 66.0018L52.9962 29.4369C53.1014 29.2968 53.1637 29.1226 53.1637 28.934V14.6604V13.3354C53.1637 12.8973 52.7823 12.9506 52.4936 13.1669L52.3242 13.3363L0.3307 65.3298C0.0244678 65.5591 -0.226911 66.1693 0.329795 66.1693H15.9284Z" fill="#141414"/>
<path d="M79.1614 66.1693C79.6245 66.1693 80 65.7938 80 65.3307V13.0168C79.9458 13.0058 79.8896 13 79.8321 13C79.5575 13 79.3137 13.132 79.1607 13.336L27.1667 65.33C26.9627 65.483 26.8307 65.7268 26.8307 66.0014C26.8307 66.1676 27.0221 66.1693 27.1661 66.1693H42.7647C42.9533 66.1693 43.1275 66.107 43.2676 66.0018L43.4358 65.8336L66.2462 43.0232C66.2462 43.0232 66.4482 42.8157 66.5819 42.7573V43.5262V44.295V65.3307C66.5819 65.7938 66.9573 66.1693 67.4205 66.1693H79.1614Z" fill="#141414"/>
</svg>
